General
ID                                       : 1 (0x1)
Complete name                            : /home/codetalks/Workspace/libeasyice/examples/hello.ts
Format                                   : MPEG-TS
File size                                : 7.57 MiB
Duration                                 : 9 s 14 ms
Overall bit rate mode                    : Constant
Overall bit rate                         : 7 026 kb/s

Video
ID                                       : 4113 (0x1011)
Menu ID                                  : 1 (0x1)
Format                                   : AVC
Format/Info                              : Advanced Video Codec
Format profile                           : High@L4
Format settings                          : CABAC / 2 Ref Frames
Format settings, CABAC                   : Yes
Format settings, ReFrames                : 2 frames
Codec ID                                 : 27
Duration                                 : 9 s 40 ms
Bit rate mode                            : Constant
Bit rate                                 : 6 500 kb/s
Width                                    : 1 920 pixels
Height                                   : 1 080 pixels
Display aspect ratio                     : 16:9
Frame rate                               : 25.000 FPS
Color space                              : YUV
Chroma subsampling                       : 4:2:0
Bit depth                                : 8 bits
Scan type                                : Progressive
Bits/(Pixel*Frame)                       : 0.125
Stream size                              : 6.99 MiB (92%)
Writing library                          : 2.4.0.721

Audio
ID                                       : 4352 (0x1100)
Menu ID                                  : 1 (0x1)
Format                                   : MPEG Audio
Format version                           : Version 1
Format profile                           : Layer 2
Codec ID                                 : 3
Duration                                 : 9 s 64 ms
Bit rate mode                            : Constant
Bit rate                                 : 192 kb/s
Channel(s)                               : 2 channels
Sampling rate                            : 44.1 kHz
Frame rate                               : 38.281 FPS (1152 SPF)
Compression mode                         : Lossy
Stream size                              : 212 KiB (3%)

Menu
ID                                       : 256 (0x100)
Menu ID                                  : 1 (0x1)
Duration                                 : 9 s 14 ms
List                                     : 4113 (0x1011) (AVC) / 4352 (0x1100) (MPEG Audio)
Service type                             : digital television

